<?xml version="1.0" standalone="no"?>
<!DOCTYPE svg PUBLIC "-//W3C//DTD SVG 20010904//EN"
 "http://www.w3.org/TR/2001/REC-SVG-20010904/DTD/svg10.dtd">
<svg version="1.0" xmlns="http://www.w3.org/2000/svg"
 width="200.000000pt" height="200.000000pt" viewBox="0 0 200.000000 200.000000"
 preserveAspectRatio="xMidYMid meet">
<metadata>
Created by potrace 1.14, written by Peter Selinger 2001-2017
</metadata>
<g transform="translate(0.000000,200.000000) scale(0.100000,-0.100000)"
fill="#000000" stroke="none">
<path d="M877 1907 c3 -5 -1 -7 -8 -6 -35 7 -159 -25 -159 -41 0 -3 -6 -7 -14
-7 -21 0 -106 -33 -106 -42 0 -4 -9 -7 -21 -8 -12 -1 -26 -8 -32 -16 -7 -8
-27 -20 -45 -27 -18 -7 -39 -22 -48 -34 -8 -11 -17 -20 -20 -18 -3 2 -37 -29
-76 -68 -39 -38 -67 -70 -64 -70 4 0 1 -6 -6 -14 -7 -8 -17 -11 -22 -8 -5 3
-6 0 -2 -6 3 -6 -1 -17 -9 -25 -8 -9 -15 -20 -15 -26 0 -5 -8 -14 -17 -20 -10
-5 -17 -12 -15 -15 1 -4 -11 -36 -28 -72 -16 -36 -33 -76 -36 -90 -3 -13 -9
-22 -13 -20 -3 2 -7 -17 -9 -42 -1 -25 -6 -49 -10 -52 -9 -6 -11 -36 -12 -190
0 -69 2 -136 6 -150 3 -14 6 -33 6 -42 -1 -10 2 -18 6 -18 4 0 8 -10 8 -22 2
-20 9 -53 14 -68 1 -3 2 -8 2 -12 -1 -3 5 -12 13 -18 8 -7 15 -16 15 -21 0
-18 44 -109 52 -109 5 0 6 -5 3 -10 -3 -6 -1 -10 4 -10 6 0 11 -9 11 -20 0
-11 4 -20 8 -20 5 0 15 -12 23 -28 14 -27 161 -182 173 -182 4 0 18 -11 32
-25 14 -14 31 -25 39 -25 8 0 15 -4 15 -9 0 -9 56 -32 74 -30 5 0 12 -4 15 -9
9 -13 87 -52 106 -52 8 0 15 -4 15 -8 0 -4 8 -8 18 -9 24 -2 77 -10 77 -13 0
-7 57 -11 165 -11 132 0 184 4 213 16 9 4 24 5 32 1 8 -3 15 -1 15 4 0 6 7 10
15 10 8 0 15 4 15 8 0 4 10 9 22 9 13 1 24 7 26 13 2 5 8 7 13 4 6 -3 16 0 24
6 8 7 15 9 15 6 0 -4 13 2 29 13 16 12 33 21 39 21 5 0 21 9 34 20 14 10 28
16 32 13 3 -3 6 -1 6 5 0 6 7 9 17 5 11 -4 14 -3 9 5 -4 7 -3 12 1 12 5 0 20
11 35 24 14 14 29 22 32 19 3 -4 6 -1 6 6 0 15 26 42 33 35 3 -3 8 4 12 15 3
12 14 21 22 21 9 0 13 3 10 7 -4 3 2 12 13 20 11 8 20 21 20 29 0 8 7 14 16
14 8 0 13 4 9 9 -3 5 2 16 10 24 8 9 15 20 15 26 0 6 4 11 8 11 9 0 57 100 54
113 -1 4 3 7 9 7 5 0 7 5 4 10 -3 6 -2 10 4 10 8 0 22 41 23 67 0 5 4 16 9 25
5 10 12 37 15 60 4 24 10 48 15 54 5 6 4 15 -3 22 -7 7 -8 12 -2 12 6 0 9 19
7 43 -4 48 -4 43 0 117 2 30 1 60 -2 65 -6 11 -8 25 -14 75 -2 20 -6 40 -9 45
-3 6 -11 31 -18 58 -7 26 -17 47 -21 47 -5 0 -9 5 -9 12 0 12 -50 119 -60 128
-3 3 -14 24 -25 47 -11 22 -23 39 -27 37 -5 -3 -8 0 -8 6 0 6 -20 31 -45 55
-24 25 -42 45 -38 45 3 0 -12 14 -33 30 -22 17 -52 42 -69 55 -16 14 -36 25
-42 25 -7 0 -13 4 -13 9 0 7 -16 15 -55 26 -5 1 -34 17 -64 34 -29 18 -59 30
-65 28 -7 -3 -20 1 -31 9 -10 8 -33 14 -51 14 -18 0 -35 3 -38 8 -5 8 -78 13
-223 15 -50 1 -89 -2 -86 -6z"/>
</g>
</svg>
