<svg id="visual" viewBox="0 0 900 600" width="900" height="600" xmlns="http://www.w3.org/2000/svg" xmlns:xlink="http://www.w3.org/1999/xlink" version="1.1"><path d="M0 109L82 109L82 73L164 73L164 109L245 109L245 109L327 109L327 115L409 115L409 73L491 73L491 115L573 115L573 121L655 121L655 73L736 73L736 103L818 103L818 61L900 61L900 85L900 0L900 0L818 0L818 0L736 0L736 0L655 0L655 0L573 0L573 0L491 0L491 0L409 0L409 0L327 0L327 0L245 0L245 0L164 0L164 0L82 0L82 0L0 0Z" fill="#4f29cd"></path><path d="M0 289L82 289L82 229L164 229L164 259L245 259L245 211L327 211L327 241L409 241L409 217L491 217L491 247L573 247L573 355L655 355L655 217L736 217L736 211L818 211L818 253L900 253L900 259L900 83L900 59L818 59L818 101L736 101L736 71L655 71L655 119L573 119L573 113L491 113L491 71L409 71L409 113L327 113L327 107L245 107L245 107L164 107L164 71L82 71L82 107L0 107Z" fill="#7034d2"></path><path d="M0 349L82 349L82 289L164 289L164 313L245 313L245 283L327 283L327 289L409 289L409 343L491 343L491 367L573 367L573 403L655 403L655 301L736 301L736 307L818 307L818 319L900 319L900 295L900 257L900 251L818 251L818 209L736 209L736 215L655 215L655 353L573 353L573 245L491 245L491 215L409 215L409 239L327 239L327 209L245 209L245 257L164 257L164 227L82 227L82 287L0 287Z" fill="#8b40d8"></path><path d="M0 409L82 409L82 349L164 349L164 391L245 391L245 337L327 337L327 337L409 337L409 379L491 379L491 439L573 439L573 493L655 493L655 367L736 367L736 397L818 397L818 415L900 415L900 397L900 293L900 317L818 317L818 305L736 305L736 299L655 299L655 401L573 401L573 365L491 365L491 341L409 341L409 287L327 287L327 281L245 281L245 311L164 311L164 287L82 287L82 347L0 347Z" fill="#a34ede"></path><path d="M0 601L82 601L82 601L164 601L164 601L245 601L245 601L327 601L327 601L409 601L409 601L491 601L491 601L573 601L573 601L655 601L655 601L736 601L736 601L818 601L818 601L900 601L900 601L900 395L900 413L818 413L818 395L736 395L736 365L655 365L655 491L573 491L573 437L491 437L491 377L409 377L409 335L327 335L327 335L245 335L245 389L164 389L164 347L82 347L82 407L0 407Z" fill="#b95ce4"></path></svg>