<svg id="visual" viewBox="0 0 900 600" width="900" height="600" xmlns="http://www.w3.org/2000/svg" xmlns:xlink="http://www.w3.org/1999/xlink" version="1.1"><rect x="0" y="0" width="900" height="600" fill="#ebf5fc"></rect><path d="M0 328L129 328L129 309L257 309L257 221L386 221L386 254L514 254L514 322L643 322L643 287L771 287L771 254L900 254L900 269L900 0L900 0L771 0L771 0L643 0L643 0L514 0L514 0L386 0L386 0L257 0L257 0L129 0L129 0L0 0Z" fill="#b95ce4"></path><path d="M0 208L129 208L129 176L257 176L257 249L386 249L386 163L514 163L514 165L643 165L643 205L771 205L771 203L900 203L900 233L900 0L900 0L771 0L771 0L643 0L643 0L514 0L514 0L386 0L386 0L257 0L257 0L129 0L129 0L0 0Z" fill="#8b40d8"></path><path d="M0 146L129 146L129 90L257 90L257 125L386 125L386 137L514 137L514 117L643 117L643 88L771 88L771 148L900 148L900 69L900 0L900 0L771 0L771 0L643 0L643 0L514 0L514 0L386 0L386 0L257 0L257 0L129 0L129 0L0 0Z" fill="#4f29cd"></path></svg>