<svg id="visual" viewBox="0 0 900 600" width="900" height="600" xmlns="http://www.w3.org/2000/svg" xmlns:xlink="http://www.w3.org/1999/xlink" version="1.1"><rect x="0" y="0" width="900" height="600" fill="#ebf5fc"></rect><defs><linearGradient id="grad1_0" x1="33.3%" y1="100%" x2="100%" y2="0%"><stop offset="20%" stop-color="#ebf5fc" stop-opacity="1"></stop><stop offset="80%" stop-color="#ebf5fc" stop-opacity="1"></stop></linearGradient></defs><defs><linearGradient id="grad2_0" x1="0%" y1="100%" x2="66.7%" y2="0%"><stop offset="20%" stop-color="#ebf5fc" stop-opacity="1"></stop><stop offset="80%" stop-color="#ebf5fc" stop-opacity="1"></stop></linearGradient></defs><g transform="translate(900, 600)"><path d="M-303 0C-291.8 -29.6 -280.6 -59.1 -271.1 -88.1C-261.5 -117 -253.7 -145.4 -239.5 -174C-225.2 -202.6 -204.6 -231.3 -177.5 -244.3C-150.4 -257.3 -116.9 -254.6 -86.2 -265.3C-55.6 -276.1 -27.8 -300.3 0 -324.5L0 0Z" fill="#24292f"></path></g><g transform="translate(0, 0)"><path d="M280 0C290.4 34 300.7 68.1 291 94.6C281.3 121.1 251.6 140.1 234.6 170.5C217.6 200.9 213.3 242.7 190.7 262.5C168.2 282.4 127.5 280.2 92.7 285.3C57.9 290.4 28.9 302.7 0 315L0 0Z" fill="#24292f"></path></g></svg>